<?xml version="1.0" encoding="us-ascii" standalone="no"?><svg xmlns="http://www.w3.org/2000/svg" xmlns:xlink="http://www.w3.org/1999/xlink" contentStyleType="text/css" height="896px" preserveAspectRatio="none" style="width:658px;height:896px;background:#FFFFFF;" version="1.1" viewBox="0 0 658 896" width="658px" zoomAndPan="magnify"><defs/><g><text fill="#000000" font-family="sans-serif" font-size="14" font-weight="bold" lengthAdjust="spacing" textLength="182" x="239.25" y="28.5352">CU: Registrar Declaraci&#243;n</text><rect fill="none" height="223.084" style="stroke:#000000;stroke-width:1.5;" width="641.5" x="10" y="575.6348"/><line style="stroke:#181818;stroke-width:0.5;stroke-dasharray:5.0,5.0;" x1="53" x2="53" y1="118.9766" y2="815.7188"/><line style="stroke:#181818;stroke-width:0.5;stroke-dasharray:5.0,5.0;" x1="344.5" x2="344.5" y1="118.9766" y2="815.7188"/><line style="stroke:#181818;stroke-width:0.5;stroke-dasharray:5.0,5.0;" x1="603.5" x2="603.5" y1="118.9766" y2="815.7188"/><text fill="#000000" font-family="sans-serif" font-size="14" lengthAdjust="spacing" textLength="61" x="20" y="116.0234">Operario</text><ellipse cx="53.5" cy="50.9883" fill="#E2E2F0" rx="8" ry="8" style="stroke:#181818;stroke-width:0.5;"/><path d="M53.5,58.9883 L53.5,85.9883 M40.5,66.9883 L66.5,66.9883 M53.5,85.9883 L40.5,100.9883 M53.5,85.9883 L66.5,100.9883 " fill="none" style="stroke:#181818;stroke-width:0.5;"/><text fill="#000000" font-family="sans-serif" font-size="14" lengthAdjust="spacing" textLength="61" x="20" y="828.2539">Operario</text><ellipse cx="53.5" cy="839.707" fill="#E2E2F0" rx="8" ry="8" style="stroke:#181818;stroke-width:0.5;"/><path d="M53.5,847.707 L53.5,874.707 M40.5,855.707 L66.5,855.707 M53.5,874.707 L40.5,889.707 M53.5,874.707 L66.5,889.707 " fill="none" style="stroke:#181818;stroke-width:0.5;"/><rect fill="#E2E2F0" height="30.4883" rx="2.5" ry="2.5" style="stroke:#181818;stroke-width:0.5;" width="96" x="296.5" y="87.4883"/><text fill="#000000" font-family="sans-serif" font-size="14" lengthAdjust="spacing" textLength="82" x="303.5" y="108.0234">InterfazWeb</text><rect fill="#E2E2F0" height="30.4883" rx="2.5" ry="2.5" style="stroke:#181818;stroke-width:0.5;" width="96" x="296.5" y="814.7188"/><text fill="#000000" font-family="sans-serif" font-size="14" lengthAdjust="spacing" textLength="82" x="303.5" y="835.2539">InterfazWeb</text><text fill="#000000" font-family="sans-serif" font-size="14" lengthAdjust="spacing" textLength="70" x="565.5" y="116.0234">BaseDatos</text><path d="M585.5,66.4883 C585.5,56.4883 603.5,56.4883 603.5,56.4883 C603.5,56.4883 621.5,56.4883 621.5,66.4883 L621.5,92.4883 C621.5,102.4883 603.5,102.4883 603.5,102.4883 C603.5,102.4883 585.5,102.4883 585.5,92.4883 L585.5,66.4883 " fill="#E2E2F0" style="stroke:#181818;stroke-width:1.5;"/><path d="M585.5,66.4883 C585.5,76.4883 603.5,76.4883 603.5,76.4883 C603.5,76.4883 621.5,76.4883 621.5,66.4883 " fill="none" style="stroke:#181818;stroke-width:1.5;"/><text fill="#000000" font-family="sans-serif" font-size="14" lengthAdjust="spacing" textLength="70" x="565.5" y="828.2539">BaseDatos</text><path d="M585.5,841.207 C585.5,831.207 603.5,831.207 603.5,831.207 C603.5,831.207 621.5,831.207 621.5,841.207 L621.5,867.207 C621.5,877.207 603.5,877.207 603.5,877.207 C603.5,877.207 585.5,877.207 585.5,867.207 L585.5,841.207 " fill="#E2E2F0" style="stroke:#181818;stroke-width:1.5;"/><path d="M585.5,841.207 C585.5,851.207 603.5,851.207 603.5,851.207 C603.5,851.207 621.5,851.207 621.5,841.207 " fill="none" style="stroke:#181818;stroke-width:1.5;"/><polygon fill="#181818" points="332.5,146.2871,342.5,150.2871,332.5,154.2871,336.5,150.2871" style="stroke:#181818;stroke-width:1.0;"/><line style="stroke:#181818;stroke-width:1.0;" x1="53.5" x2="338.5" y1="150.2871" y2="150.2871"/><text fill="#000000" font-family="sans-serif" font-size="13" lengthAdjust="spacing" textLength="149" x="60.5" y="145.5449">Accede a la InterfazWeb</text><polygon fill="#181818" points="591.5,175.5977,601.5,179.5977,591.5,183.5977,595.5,179.5977" style="stroke:#181818;stroke-width:1.0;"/><line style="stroke:#181818;stroke-width:1.0;" x1="344.5" x2="597.5" y1="179.5977" y2="179.5977"/><text fill="#000000" font-family="sans-serif" font-size="13" lengthAdjust="spacing" textLength="187" x="351.5" y="174.8555">Consulta puestos disponibles</text><polygon fill="#181818" points="355.5,204.9082,345.5,208.9082,355.5,212.9082,351.5,208.9082" style="stroke:#181818;stroke-width:1.0;"/><line style="stroke:#181818;stroke-width:1.0;stroke-dasharray:2.0,2.0;" x1="349.5" x2="602.5" y1="208.9082" y2="208.9082"/><text fill="#000000" font-family="sans-serif" font-size="13" lengthAdjust="spacing" textLength="152" x="361.5" y="204.166">Lista de puestos activos</text><polygon fill="#181818" points="64.5,234.2188,54.5,238.2188,64.5,242.2188,60.5,238.2188" style="stroke:#181818;stroke-width:1.0;"/><line style="stroke:#181818;stroke-width:1.0;stroke-dasharray:2.0,2.0;" x1="58.5" x2="343.5" y1="238.2188" y2="238.2188"/><text fill="#000000" font-family="sans-serif" font-size="13" lengthAdjust="spacing" textLength="181" x="70.5" y="233.4766">Muestra puestos disponibles</text><polygon fill="#181818" points="332.5,263.5293,342.5,267.5293,332.5,271.5293,336.5,267.5293" style="stroke:#181818;stroke-width:1.0;"/><line style="stroke:#181818;stroke-width:1.0;" x1="53.5" x2="338.5" y1="267.5293" y2="267.5293"/><text fill="#000000" font-family="sans-serif" font-size="13" lengthAdjust="spacing" textLength="132" x="60.5" y="262.7871">Selecciona su puesto</text><polygon fill="#181818" points="591.5,292.8398,601.5,296.8398,591.5,300.8398,595.5,296.8398" style="stroke:#181818;stroke-width:1.0;"/><line style="stroke:#181818;stroke-width:1.0;" x1="344.5" x2="597.5" y1="296.8398" y2="296.8398"/><text fill="#000000" font-family="sans-serif" font-size="13" lengthAdjust="spacing" textLength="235" x="351.5" y="292.0977">Solicita &#243;rdenes abiertas en el puesto</text><polygon fill="#181818" points="355.5,322.1504,345.5,326.1504,355.5,330.1504,351.5,326.1504" style="stroke:#181818;stroke-width:1.0;"/><line style="stroke:#181818;stroke-width:1.0;stroke-dasharray:2.0,2.0;" x1="349.5" x2="602.5" y1="326.1504" y2="326.1504"/><text fill="#000000" font-family="sans-serif" font-size="13" lengthAdjust="spacing" textLength="159" x="361.5" y="321.4082">Lista de ordenes filtradas</text><polygon fill="#181818" points="64.5,351.4609,54.5,355.4609,64.5,359.4609,60.5,355.4609" style="stroke:#181818;stroke-width:1.0;"/><line style="stroke:#181818;stroke-width:1.0;stroke-dasharray:2.0,2.0;" x1="58.5" x2="343.5" y1="355.4609" y2="355.4609"/><text fill="#000000" font-family="sans-serif" font-size="13" lengthAdjust="spacing" textLength="181" x="70.5" y="350.7188">Muestra ordenes disponibles</text><polygon fill="#181818" points="332.5,380.7715,342.5,384.7715,332.5,388.7715,336.5,384.7715" style="stroke:#181818;stroke-width:1.0;"/><line style="stroke:#181818;stroke-width:1.0;" x1="53.5" x2="338.5" y1="384.7715" y2="384.7715"/><text fill="#000000" font-family="sans-serif" font-size="13" lengthAdjust="spacing" textLength="121" x="60.5" y="380.0293">Selecciona la orden</text><polygon fill="#181818" points="591.5,410.082,601.5,414.082,591.5,418.082,595.5,414.082" style="stroke:#181818;stroke-width:1.0;"/><line style="stroke:#181818;stroke-width:1.0;" x1="344.5" x2="597.5" y1="414.082" y2="414.082"/><text fill="#000000" font-family="sans-serif" font-size="13" lengthAdjust="spacing" textLength="215" x="351.5" y="409.3398">Solicita referencias para esa orden</text><polygon fill="#181818" points="355.5,439.3926,345.5,443.3926,355.5,447.3926,351.5,443.3926" style="stroke:#181818;stroke-width:1.0;"/><line style="stroke:#181818;stroke-width:1.0;stroke-dasharray:2.0,2.0;" x1="349.5" x2="602.5" y1="443.3926" y2="443.3926"/><text fill="#000000" font-family="sans-serif" font-size="13" lengthAdjust="spacing" textLength="178" x="361.5" y="438.6504">Lista de referencias filtradas</text><polygon fill="#181818" points="64.5,468.7031,54.5,472.7031,64.5,476.7031,60.5,472.7031" style="stroke:#181818;stroke-width:1.0;"/><line style="stroke:#181818;stroke-width:1.0;stroke-dasharray:2.0,2.0;" x1="58.5" x2="343.5" y1="472.7031" y2="472.7031"/><text fill="#000000" font-family="sans-serif" font-size="13" lengthAdjust="spacing" textLength="200" x="70.5" y="467.9609">Muestra referencias disponibles</text><polygon fill="#181818" points="332.5,498.0137,342.5,502.0137,332.5,506.0137,336.5,502.0137" style="stroke:#181818;stroke-width:1.0;"/><line style="stroke:#181818;stroke-width:1.0;" x1="53.5" x2="338.5" y1="502.0137" y2="502.0137"/><text fill="#000000" font-family="sans-serif" font-size="13" lengthAdjust="spacing" textLength="147" x="60.5" y="497.2715">Selecciona la referencia</text><polygon fill="#181818" points="64.5,527.3242,54.5,531.3242,64.5,535.3242,60.5,531.3242" style="stroke:#181818;stroke-width:1.0;"/><line style="stroke:#181818;stroke-width:1.0;stroke-dasharray:2.0,2.0;" x1="58.5" x2="343.5" y1="531.3242" y2="531.3242"/><text fill="#000000" font-family="sans-serif" font-size="13" lengthAdjust="spacing" textLength="267" x="70.5" y="526.582">Muestra cantidad producida anteriormente</text><polygon fill="#181818" points="332.5,556.6348,342.5,560.6348,332.5,564.6348,336.5,560.6348" style="stroke:#181818;stroke-width:1.0;"/><line style="stroke:#181818;stroke-width:1.0;" x1="53.5" x2="338.5" y1="560.6348" y2="560.6348"/><text fill="#000000" font-family="sans-serif" font-size="13" lengthAdjust="spacing" textLength="198" x="60.5" y="555.8926">Introduce la cantidad a declarar</text><path d="M10,575.6348 L72,575.6348 L72,582.9453 L62,592.9453 L10,592.9453 L10,575.6348 " fill="#EEEEEE" style="stroke:#000000;stroke-width:1.5;"/><rect fill="none" height="223.084" style="stroke:#000000;stroke-width:1.5;" width="641.5" x="10" y="575.6348"/><text fill="#000000" font-family="sans-serif" font-size="13" font-weight="bold" lengthAdjust="spacing" textLength="17" x="25" y="589.2031">alt</text><text fill="#000000" font-family="sans-serif" font-size="11" font-weight="bold" lengthAdjust="spacing" textLength="202" x="87" y="588.2695">[FA1: No hay puestos activos en BD]</text><polygon fill="#181818" points="355.5,610.2559,345.5,614.2559,355.5,618.2559,351.5,614.2559" style="stroke:#181818;stroke-width:1.0;"/><line style="stroke:#181818;stroke-width:1.0;stroke-dasharray:2.0,2.0;" x1="349.5" x2="602.5" y1="614.2559" y2="614.2559"/><text fill="#000000" font-family="sans-serif" font-size="13" lengthAdjust="spacing" textLength="122" x="361.5" y="609.5137">Sin puestos activos</text><polygon fill="#181818" points="64.5,639.5664,54.5,643.5664,64.5,647.5664,60.5,643.5664" style="stroke:#181818;stroke-width:1.0;"/><line style="stroke:#181818;stroke-width:1.0;stroke-dasharray:2.0,2.0;" x1="58.5" x2="343.5" y1="643.5664" y2="643.5664"/><text fill="#000000" font-family="sans-serif" font-size="13" lengthAdjust="spacing" textLength="184" x="70.5" y="638.8242">Error - Formulario bloqueado</text><line style="stroke:#000000;stroke-width:1.0;stroke-dasharray:2.0,2.0;" x1="10" x2="651.5" y1="652.5664" y2="652.5664"/><text fill="#000000" font-family="sans-serif" font-size="11" font-weight="bold" lengthAdjust="spacing" textLength="260" x="15" y="663.2012">[FA2: No hay referencias abiertas en el puesto]</text><polygon fill="#181818" points="355.5,683.832,345.5,687.832,355.5,691.832,351.5,687.832" style="stroke:#181818;stroke-width:1.0;"/><line style="stroke:#181818;stroke-width:1.0;stroke-dasharray:2.0,2.0;" x1="349.5" x2="602.5" y1="687.832" y2="687.832"/><text fill="#000000" font-family="sans-serif" font-size="13" lengthAdjust="spacing" textLength="92" x="361.5" y="683.0898">Sin referencias</text><polygon fill="#181818" points="64.5,713.1426,54.5,717.1426,64.5,721.1426,60.5,717.1426" style="stroke:#181818;stroke-width:1.0;"/><line style="stroke:#181818;stroke-width:1.0;stroke-dasharray:2.0,2.0;" x1="58.5" x2="343.5" y1="717.1426" y2="717.1426"/><text fill="#000000" font-family="sans-serif" font-size="13" lengthAdjust="spacing" textLength="206" x="70.5" y="712.4004">Desplegable de referencias vac&#237;o</text><line style="stroke:#000000;stroke-width:1.0;stroke-dasharray:2.0,2.0;" x1="10" x2="651.5" y1="726.1426" y2="726.1426"/><text fill="#000000" font-family="sans-serif" font-size="11" font-weight="bold" lengthAdjust="spacing" textLength="272" x="15" y="736.7773">[FA3: No hay &#243;rdenes abiertas para la referencia]</text><polygon fill="#181818" points="355.5,757.4082,345.5,761.4082,355.5,765.4082,351.5,761.4082" style="stroke:#181818;stroke-width:1.0;"/><line style="stroke:#181818;stroke-width:1.0;stroke-dasharray:2.0,2.0;" x1="349.5" x2="602.5" y1="761.4082" y2="761.4082"/><text fill="#000000" font-family="sans-serif" font-size="13" lengthAdjust="spacing" textLength="73" x="361.5" y="756.666">Sin &#243;rdenes</text><polygon fill="#181818" points="64.5,786.7188,54.5,790.7188,64.5,794.7188,60.5,790.7188" style="stroke:#181818;stroke-width:1.0;"/><line style="stroke:#181818;stroke-width:1.0;stroke-dasharray:2.0,2.0;" x1="58.5" x2="343.5" y1="790.7188" y2="790.7188"/><text fill="#000000" font-family="sans-serif" font-size="13" lengthAdjust="spacing" textLength="187" x="70.5" y="785.9766">Desplegable de &#243;rdenes vac&#237;o</text><!--SRC=[bPDDQiCm48NtEiMGVHPjTruKahY1G7-WeMGzbYQfG9LSIGwqT-egHyZ5EZQHwoPgIBqmndhpvfFcAUfe26Ol1JpJHeVeqKD9qg17gVSxAmJAw3myrSHBseaQVTHIrsWZZ1Osab_Zvugg4M20nKeeZ5XX81XD-LrYTA5RcfP291COtx8K2fX8IOe0mI0Cl0GlicHQicJcR6XCHAWR2cm6IeVQMLqP2e8Lu-Hrp_G8x9Q43AwtBdHcBEgR5_3GAdpUyXHoIOQarCuYXEPGCoHSEiC7mhttEw_84dUkDFd8coOBP5995jOTIjRQC972SxX9Up6kETHaQJsjoPELcZbvg0WKaZnBEjHVGZlK_uVuf-wCkUJuQOKAQkzK8_aJiCsFTlwD-2FJXVFLQQbjqjUtM-lIxZdf9i9ySbN0euDN_3WEKZjDJZ7mCpoWfROdaMirf_1ttlDD6iES8HlJ_QoCUsy8bHDa-CxC9zTzz-7vvGEL8nbK_K5HKgWDRP27SJpMBShzLuzoqwES1hiBpEzXvMXIuMKeVPl4OPNu1W00]--></g></svg>