<?xml version="1.0" encoding="us-ascii" standalone="no"?><svg xmlns="http://www.w3.org/2000/svg" xmlns:xlink="http://www.w3.org/1999/xlink" contentStyleType="text/css" height="675px" preserveAspectRatio="none" style="width:775px;height:675px;background:#FFFFFF;" version="1.1" viewBox="0 0 775 675" width="775px" zoomAndPan="magnify"><defs/><g><text fill="#000000" font-family="sans-serif" font-size="14" font-weight="bold" lengthAdjust="spacing" textLength="284" x="238.88" y="23.5352">Diagrama de Estados - Contrase&#241;a SAP</text><ellipse cx="308.9" cy="53.4883" fill="#222222" rx="10" ry="10" style="stroke:#222222;stroke-width:1.0;"/><rect fill="#F1F1F1" height="40" rx="12.5" ry="12.5" style="stroke:#181818;stroke-width:0.5;" width="62" x="277.9" y="141.4883"/><text fill="#000000" font-family="sans-serif" font-size="14" lengthAdjust="spacing" textLength="52" x="282.9" y="166.7793">Vigente</text><rect fill="#F1F1F1" height="40" rx="12.5" ry="12.5" style="stroke:#181818;stroke-width:0.5;" width="134" x="168.9" y="274.4883"/><text fill="#000000" font-family="sans-serif" font-size="14" lengthAdjust="spacing" textLength="124" x="173.9" y="299.7793">ProximaACaducar</text><rect fill="#F1F1F1" height="40" rx="12.5" ry="12.5" style="stroke:#181818;stroke-width:0.5;" width="87" x="327.4" y="414.4883"/><text fill="#000000" font-family="sans-serif" font-size="14" lengthAdjust="spacing" textLength="77" x="332.4" y="439.7793">Renovando</text><rect fill="#F1F1F1" height="40" rx="12.5" ry="12.5" style="stroke:#181818;stroke-width:0.5;" width="82" x="329.9" y="546.4883"/><text fill="#000000" font-family="sans-serif" font-size="14" lengthAdjust="spacing" textLength="72" x="334.9" y="571.7793">Bloqueada</text><rect fill="#F1F1F1" height="40" rx="12.5" ry="12.5" style="stroke:#181818;stroke-width:0.5;" width="78" x="69.9" y="344.4883"/><text fill="#000000" font-family="sans-serif" font-size="14" lengthAdjust="spacing" textLength="68" x="74.9" y="369.7793">Caducada</text><ellipse cx="370.9" cy="658.4883" fill="none" rx="11" ry="11" style="stroke:#222222;stroke-width:1.0;"/><ellipse cx="370.9" cy="658.4883" fill="#222222" rx="6" ry="6" style="stroke:#222222;stroke-width:1.0;"/><!--link *start* to Vigente--><g id="link_*start*_Vigente"><path d="M308.9,63.8983 C308.9,81.2283 308.9,112.4983 308.9,135.3483 " fill="none" id="*start*-to-Vigente" style="stroke:#181818;stroke-width:1.0;"/><polygon fill="#181818" points="308.9,141.3483,312.9,132.3483,308.9,136.3483,304.9,132.3483,308.9,141.3483" style="stroke:#181818;stroke-width:1.0;"/><text fill="#000000" font-family="sans-serif" font-size="13" lengthAdjust="spacing" textLength="144" x="309.9" y="107.0566">contrase&#241;a establecida</text></g><!--link Vigente to Vigente--><g id="link_Vigente_Vigente"><path d="M340.14,150.9483 C358.14,148.7883 374.9,152.3083 374.9,161.4883 C374.9,170.6683 364.0977,174.8899 346.0977,172.7399 " fill="none" id="Vigente-to-Vigente" style="stroke:#181818;stroke-width:1.0;"/><polygon fill="#181818" points="340.14,172.0283,348.6021,177.0675,345.1047,172.6213,349.5509,169.1239,340.14,172.0283" style="stroke:#181818;stroke-width:1.0;"/><text fill="#000000" font-family="sans-serif" font-size="13" lengthAdjust="spacing" textLength="125" x="396.4" y="159.0566">RobotRPA se loguea</text><text fill="#000000" font-family="sans-serif" font-size="13" lengthAdjust="spacing" textLength="156" x="380.9" y="174.3672">[d&#237;as transcurridos &lt; 28]</text></g><!--link Vigente to ProximaACaducar--><g id="link_Vigente_ProximaACaducar"><path d="M277.76,169.2183 C254.89,175.9683 225.37,188.8683 210.9,212.4883 C199.14,231.6883 207.1446,251.809 218.0846,268.969 " fill="none" id="Vigente-to-ProximaACaducar" style="stroke:#181818;stroke-width:1.0;"/><polygon fill="#181818" points="221.31,274.0283,219.8447,264.289,218.6221,269.8122,213.099,268.5896,221.31,274.0283" style="stroke:#181818;stroke-width:1.0;"/><text fill="#000000" font-family="sans-serif" font-size="13" lengthAdjust="spacing" textLength="111" x="239.4" y="226.0566">RobotRPA detecta</text><text fill="#000000" font-family="sans-serif" font-size="13" lengthAdjust="spacing" textLength="166" x="211.9" y="241.3672">[d&#237;as transcurridos &gt;= 28]</text></g><!--link ProximaACaducar to Renovando--><g id="link_ProximaACaducar_Renovando"><path d="M235.37,314.6983 C235.83,334.3683 239.48,364.7783 255.9,384.4883 C273.75,405.9183 296.8871,416.5431 321.2471,423.4431 " fill="none" id="ProximaACaducar-to-Renovando" style="stroke:#181818;stroke-width:1.0;"/><polygon fill="#181818" points="327.02,425.0783,319.4508,418.7769,322.2093,423.7156,317.2706,426.4741,327.02,425.0783" style="stroke:#181818;stroke-width:1.0;"/><text fill="#000000" font-family="sans-serif" font-size="13" lengthAdjust="spacing" textLength="99" x="267.9" y="362.0566">RobotRPA inicia</text><text fill="#000000" font-family="sans-serif" font-size="13" lengthAdjust="spacing" textLength="121" x="256.9" y="377.3672">cambio autom&#225;tico</text></g><!--link Renovando to Vigente--><g id="link_Renovando_Vigente"><path d="M378.29,414.0283 C392.3,373.6883 418.32,279.1683 382.9,212.4883 C373.81,195.3683 361.2915,185.7812 345.4015,177.6512 " fill="none" id="Renovando-to-Vigente" style="stroke:#181818;stroke-width:1.0;"/><polygon fill="#181818" points="340.06,174.9183,346.2502,182.5786,344.5112,177.1957,349.8941,175.4567,340.06,174.9183" style="stroke:#181818;stroke-width:1.0;"/><text fill="#000000" font-family="sans-serif" font-size="13" lengthAdjust="spacing" textLength="97" x="442.2" y="292.0566">cambio exitoso</text><text fill="#000000" font-family="sans-serif" font-size="13" lengthAdjust="spacing" textLength="178" x="401.7" y="307.3672">[d&#237;as = 0, nueva contrase&#241;a]</text></g><!--link Renovando to Bloqueada--><g id="link_Renovando_Bloqueada"><path d="M370.9,454.9483 C370.9,479.5983 370.9,515.8083 370.9,540.3183 " fill="none" id="Renovando-to-Bloqueada" style="stroke:#181818;stroke-width:1.0;"/><polygon fill="#181818" points="370.9,546.3183,374.9,537.3183,370.9,541.3183,366.9,537.3183,370.9,546.3183" style="stroke:#181818;stroke-width:1.0;"/><text fill="#000000" font-family="sans-serif" font-size="13" lengthAdjust="spacing" textLength="115" x="383.4" y="498.0566">3 intentos fallidos</text><text fill="#000000" font-family="sans-serif" font-size="13" lengthAdjust="spacing" textLength="138" x="371.9" y="513.3672">al cambiar contrase&#241;a</text></g><!--link Vigente to Caducada--><g id="link_Vigente_Caducada"><path d="M277.88,163.4783 C213.71,166.2383 69.89,176.4183 39.9,212.4883 C6,253.2683 52.2058,309.2274 83.2758,339.8374 " fill="none" id="Vigente-to-Caducada" style="stroke:#181818;stroke-width:1.0;"/><polygon fill="#181818" points="87.55,344.0483,83.946,334.8825,83.9882,340.5392,78.3315,340.5814,87.55,344.0483" style="stroke:#181818;stroke-width:1.0;"/><text fill="#000000" font-family="sans-serif" font-size="13" lengthAdjust="spacing" textLength="81" x="78.4" y="226.0566">no se renov&#243;</text><text fill="#000000" font-family="sans-serif" font-size="13" lengthAdjust="spacing" textLength="156" x="40.9" y="241.3672">[d&#237;as transcurridos = 30]</text></g><!--link Caducada to Bloqueada--><g id="link_Caducada_Bloqueada"><path d="M113.43,384.6683 C118.93,404.3083 129.9,434.6883 148.9,454.4883 C199.62,507.3483 275.1531,537.1588 324.0231,552.4288 " fill="none" id="Caducada-to-Bloqueada" style="stroke:#181818;stroke-width:1.0;"/><polygon fill="#181818" points="329.75,554.2183,322.3526,547.7161,324.9775,552.7271,319.9666,555.3521,329.75,554.2183" style="stroke:#181818;stroke-width:1.0;"/><text fill="#000000" font-family="sans-serif" font-size="13" lengthAdjust="spacing" textLength="100" x="179.4" y="432.0566">intento de login</text><text fill="#000000" font-family="sans-serif" font-size="13" lengthAdjust="spacing" textLength="159" x="149.9" y="447.3672">con contrase&#241;a caducada</text></g><!--link Bloqueada to Vigente--><g id="link_Bloqueada_Vigente"><path d="M412.14,561.7583 C445.07,556.6783 490.28,544.7083 518.9,516.4883 C665.16,372.2383 634.82,342.3083 588.9,274.4883 C531.96,190.3783 406.4977,169.9446 346.1777,164.7346 " fill="none" id="Bloqueada-to-Vigente" style="stroke:#181818;stroke-width:1.0;"/><polygon fill="#181818" points="340.2,164.2183,348.8224,168.9779,345.1815,164.6485,349.5108,161.0076,340.2,164.2183" style="stroke:#181818;stroke-width:1.0;"/><text fill="#000000" font-family="sans-serif" font-size="13" lengthAdjust="spacing" textLength="123" x="636.26" y="362.0566">desbloqueo manual</text><text fill="#000000" font-family="sans-serif" font-size="13" lengthAdjust="spacing" textLength="140" x="627.76" y="377.3672">por administrador SAP</text></g><!--link Bloqueada to *end*--><g id="link_Bloqueada_*end*"><path d="M370.9,586.5783 C370.9,605.1483 370.9,626.6583 370.9,641.3583 " fill="none" id="Bloqueada-to-*end*" style="stroke:#181818;stroke-width:1.0;"/><polygon fill="#181818" points="370.9,647.3583,374.9,638.3583,370.9,642.3583,366.9,638.3583,370.9,647.3583" style="stroke:#181818;stroke-width:1.0;"/></g><!--SRC=[TPB1JW9138RlynGz6qc8N8mH4aJl11ClmA4xCsAJsHPdPWa-ZW_WmVW8-s9sMSHT4ewJwV_rxzzcoi738-4cOedWF3obZ4uI360cd2CcNtyZF4_dnhoH_ljocp-qCDb8sqp2nYolrZ0OJE25DfwpXpkm7QbNO16y9OV6_9NqonTII5xCfv0y1DbK7bUyTFKN9b0C9rl5I8sfUxYvNVSfyoXxAd4wGrTPZ5sQyzdRV8ar6RUmSq03NNYM7RAJBewOB2dDObcG05PPolepanLZ_WLdGRIrVazPafoSZ65u3Lpv7NQZMfzp7eAyQnWEbJJI_bcfwlmLGsX6M366jeFQxd3w0RLp7HWiJSAnwL7_N8Xb3AEX6ZcfpdqSNJIdegiYrZo4UmktHwan_xf-AdeznU5Be4IkCAnuAn7GbPfnKf3Jr-7a-WGzDFCB]--></g></svg>