<?xml version="1.0" encoding="us-ascii" standalone="no"?><svg xmlns="http://www.w3.org/2000/svg" xmlns:xlink="http://www.w3.org/1999/xlink" contentStyleType="text/css" height="401px" preserveAspectRatio="none" style="width:765px;height:401px;background:#FFFFFF;" version="1.1" viewBox="0 0 765 401" width="765px" zoomAndPan="magnify"><defs/><g><!--class RobotRPA--><g id="elem_RobotRPA"><rect codeLine="1" fill="#F1F1F1" height="113.9531" id="RobotRPA" rx="2.5" ry="2.5" style="stroke:#181818;stroke-width:0.5;" width="261" x="225.5" y="7"/><ellipse cx="317.75" cy="23" fill="#ADD1B2" rx="11" ry="11" style="stroke:#181818;stroke-width:1.0;"/><path d="M320.2231,29.1431 Q319.6421,29.4419 319.0029,29.5913 Q318.3638,29.7407 317.6582,29.7407 Q315.1514,29.7407 313.8315,28.0889 Q312.5117,26.437 312.5117,23.3159 Q312.5117,20.1865 313.8315,18.5347 Q315.1514,16.8828 317.6582,16.8828 Q318.3638,16.8828 319.0112,17.0322 Q319.6587,17.1816 320.2231,17.4805 L320.2231,20.2031 Q319.5923,19.6221 318.9988,19.3523 Q318.4053,19.0825 317.7744,19.0825 Q316.4297,19.0825 315.7449,20.1492 Q315.0601,21.2158 315.0601,23.3159 Q315.0601,25.4077 315.7449,26.4744 Q316.4297,27.541 317.7744,27.541 Q318.4053,27.541 318.9988,27.2712 Q319.5923,27.0015 320.2231,26.4204 Z " fill="#000000"/><text fill="#000000" font-family="sans-serif" font-size="14" lengthAdjust="spacing" textLength="68" x="338.25" y="28.291">RobotRPA</text><line style="stroke:#181818;stroke-width:0.5;" x1="226.5" x2="485.5" y1="39" y2="39"/><rect fill="none" height="6" style="stroke:#C82930;stroke-width:1.0;" width="6" x="233.5" y="49.7441"/><text fill="#000000" font-family="sans-serif" font-size="14" lengthAdjust="spacing" textLength="95" x="245.5" y="56.5352">estado: String</text><rect fill="none" height="6" style="stroke:#C82930;stroke-width:1.0;" width="6" x="233.5" y="66.2324"/><text fill="#000000" font-family="sans-serif" font-size="14" lengthAdjust="spacing" textLength="235" x="245.5" y="73.0234">ultimoCambioPassword: DateTime</text><line style="stroke:#181818;stroke-width:0.5;" x1="226.5" x2="485.5" y1="79.9766" y2="79.9766"/><ellipse cx="236.5" cy="93.7207" fill="#84BE84" rx="3" ry="3" style="stroke:#038048;stroke-width:1.0;"/><text fill="#000000" font-family="sans-serif" font-size="14" lengthAdjust="spacing" textLength="211" x="245.5" y="97.5117">verificarContrasena() : Boolean</text><ellipse cx="236.5" cy="110.209" fill="#84BE84" rx="3" ry="3" style="stroke:#038048;stroke-width:1.0;"/><text fill="#000000" font-family="sans-serif" font-size="14" lengthAdjust="spacing" textLength="197" x="245.5" y="114">ejecutarCambioContrasena()</text></g><!--class ConfiguracionSAP--><g id="elem_ConfiguracionSAP"><rect codeLine="8" fill="#F1F1F1" height="196.3945" id="ConfiguracionSAP" rx="2.5" ry="2.5" style="stroke:#181818;stroke-width:0.5;" width="306" x="7" y="197.96"/><ellipse cx="93.75" cy="213.96" fill="#ADD1B2" rx="11" ry="11" style="stroke:#181818;stroke-width:1.0;"/><path d="M96.2231,220.1031 Q95.6421,220.4019 95.0029,220.5513 Q94.3638,220.7007 93.6582,220.7007 Q91.1514,220.7007 89.8315,219.0489 Q88.5117,217.397 88.5117,214.2759 Q88.5117,211.1465 89.8315,209.4947 Q91.1514,207.8428 93.6582,207.8428 Q94.3638,207.8428 95.0112,207.9922 Q95.6587,208.1416 96.2231,208.4405 L96.2231,211.1631 Q95.5923,210.5821 94.9988,210.3123 Q94.4053,210.0425 93.7744,210.0425 Q92.4297,210.0425 91.7449,211.1092 Q91.0601,212.1758 91.0601,214.2759 Q91.0601,216.3677 91.7449,217.4344 Q92.4297,218.501 93.7744,218.501 Q94.4053,218.501 94.9988,218.2312 Q95.5923,217.9615 96.2231,217.3804 Z " fill="#000000"/><text fill="#000000" font-family="sans-serif" font-size="14" lengthAdjust="spacing" textLength="124" x="114.25" y="219.251">ConfiguracionSAP</text><line style="stroke:#181818;stroke-width:0.5;" x1="8" x2="312" y1="229.96" y2="229.96"/><rect fill="none" height="6" style="stroke:#C82930;stroke-width:1.0;" width="6" x="15" y="240.7041"/><text fill="#000000" font-family="sans-serif" font-size="14" lengthAdjust="spacing" textLength="70" x="27" y="247.4952">id: Integer</text><rect fill="none" height="6" style="stroke:#C82930;stroke-width:1.0;" width="6" x="15" y="257.1924"/><text fill="#000000" font-family="sans-serif" font-size="14" lengthAdjust="spacing" textLength="117" x="27" y="263.9834">puestoId: Integer</text><rect fill="none" height="6" style="stroke:#C82930;stroke-width:1.0;" width="6" x="15" y="273.6807"/><text fill="#000000" font-family="sans-serif" font-size="14" lengthAdjust="spacing" textLength="101" x="27" y="280.4717">usuario: String</text><rect fill="none" height="6" style="stroke:#C82930;stroke-width:1.0;" width="6" x="15" y="290.169"/><text fill="#000000" font-family="sans-serif" font-size="14" lengthAdjust="spacing" textLength="158" x="27" y="296.96">passwordActual: String</text><rect fill="none" height="6" style="stroke:#C82930;stroke-width:1.0;" width="6" x="15" y="306.6573"/><text fill="#000000" font-family="sans-serif" font-size="14" lengthAdjust="spacing" textLength="235" x="27" y="313.4483">ultimoCambioPassword: DateTime</text><line style="stroke:#181818;stroke-width:0.5;" x1="8" x2="312" y1="320.4014" y2="320.4014"/><ellipse cx="18" cy="334.1455" fill="#84BE84" rx="3" ry="3" style="stroke:#038048;stroke-width:1.0;"/><text fill="#000000" font-family="sans-serif" font-size="14" lengthAdjust="spacing" textLength="262" x="27" y="337.9366">getDiasDesdeUltimoCambio() : Integer</text><ellipse cx="18" cy="350.6338" fill="#84BE84" rx="3" ry="3" style="stroke:#038048;stroke-width:1.0;"/><text fill="#000000" font-family="sans-serif" font-size="14" lengthAdjust="spacing" textLength="224" x="27" y="354.4248">generarNuevaPassword() : String</text><ellipse cx="18" cy="367.1221" fill="#84BE84" rx="3" ry="3" style="stroke:#038048;stroke-width:1.0;"/><text fill="#000000" font-family="sans-serif" font-size="14" lengthAdjust="spacing" textLength="280" x="27" y="370.9131">actualizarFechaCambio(fecha: DateTime)</text><ellipse cx="18" cy="383.6104" fill="#84BE84" rx="3" ry="3" style="stroke:#038048;stroke-width:1.0;"/><text fill="#000000" font-family="sans-serif" font-size="14" lengthAdjust="spacing" textLength="232" x="27" y="387.4014">actualizarPassword(nueva: String)</text></g><!--class LogEjecucion--><g id="elem_LogEjecucion"><rect codeLine="20" fill="#F1F1F1" height="146.9297" id="LogEjecucion" rx="2.5" ry="2.5" style="stroke:#181818;stroke-width:0.5;" width="410" x="348" y="222.69"/><ellipse cx="503.75" cy="238.69" fill="#ADD1B2" rx="11" ry="11" style="stroke:#181818;stroke-width:1.0;"/><path d="M506.2231,244.8331 Q505.6421,245.1319 505.0029,245.2813 Q504.3638,245.4307 503.6582,245.4307 Q501.1514,245.4307 499.8315,243.7789 Q498.5117,242.127 498.5117,239.0059 Q498.5117,235.8765 499.8315,234.2247 Q501.1514,232.5728 503.6582,232.5728 Q504.3638,232.5728 505.0112,232.7222 Q505.6587,232.8716 506.2231,233.1705 L506.2231,235.8931 Q505.5923,235.3121 504.9988,235.0423 Q504.4053,234.7725 503.7744,234.7725 Q502.4297,234.7725 501.7449,235.8392 Q501.0601,236.9058 501.0601,239.0059 Q501.0601,241.0977 501.7449,242.1644 Q502.4297,243.231 503.7744,243.231 Q504.4053,243.231 504.9988,242.9612 Q505.5923,242.6915 506.2231,242.1104 Z " fill="#000000"/><text fill="#000000" font-family="sans-serif" font-size="14" lengthAdjust="spacing" textLength="90" x="524.25" y="243.981">LogEjecucion</text><line style="stroke:#181818;stroke-width:0.5;" x1="349" x2="757" y1="254.69" y2="254.69"/><rect fill="none" height="6" style="stroke:#C82930;stroke-width:1.0;" width="6" x="356" y="265.4341"/><text fill="#000000" font-family="sans-serif" font-size="14" lengthAdjust="spacing" textLength="70" x="368" y="272.2252">id: Integer</text><rect fill="none" height="6" style="stroke:#C82930;stroke-width:1.0;" width="6" x="356" y="281.9224"/><text fill="#000000" font-family="sans-serif" font-size="14" lengthAdjust="spacing" textLength="122" x="368" y="288.7134">tipoEvento: String</text><rect fill="none" height="6" style="stroke:#C82930;stroke-width:1.0;" width="6" x="356" y="298.4107"/><text fill="#000000" font-family="sans-serif" font-size="14" lengthAdjust="spacing" textLength="106" x="368" y="305.2017">mensaje: String</text><rect fill="none" height="6" style="stroke:#C82930;stroke-width:1.0;" width="6" x="356" y="314.899"/><text fill="#000000" font-family="sans-serif" font-size="14" lengthAdjust="spacing" textLength="143" x="368" y="321.69">fechaHora: DateTime</text><rect fill="none" height="6" style="stroke:#C82930;stroke-width:1.0;" width="6" x="356" y="331.3873"/><text fill="#000000" font-family="sans-serif" font-size="14" lengthAdjust="spacing" textLength="98" x="368" y="338.1783">exito: Boolean</text><line style="stroke:#181818;stroke-width:0.5;" x1="349" x2="757" y1="345.1314" y2="345.1314"/><ellipse cx="359" cy="358.8755" fill="#84BE84" rx="3" ry="3" style="stroke:#038048;stroke-width:1.0;"/><text fill="#000000" font-family="sans-serif" font-size="14" lengthAdjust="spacing" textLength="384" x="368" y="362.6666">registrar(evento: String, mensaje: String, exito: Boolean)</text></g><!--link RobotRPA to ConfiguracionSAP--><g id="link_RobotRPA_ConfiguracionSAP"><path codeLine="29" d="M308.05,121.29 C288.45,144.31 269.081,167.0627 246.871,193.1327 " fill="none" id="RobotRPA-to-ConfiguracionSAP" style="stroke:#181818;stroke-width:1.0;"/><polygon fill="#181818" points="242.98,197.7,251.8614,193.4431,246.2225,193.8939,245.7717,188.2551,242.98,197.7" style="stroke:#181818;stroke-width:1.0;"/><text fill="#000000" font-family="sans-serif" font-size="13" lengthAdjust="spacing" textLength="125" x="282.32" y="164.5284">consulta y actualiza</text></g><!--link RobotRPA to LogEjecucion--><g id="link_RobotRPA_LogEjecucion"><path codeLine="30" d="M404.19,121.29 C430.28,151.76 458.8985,185.2017 486.8785,217.8917 " fill="none" id="RobotRPA-to-LogEjecucion" style="stroke:#181818;stroke-width:1.0;"/><polygon fill="#181818" points="490.78,222.45,487.9666,213.0115,487.5287,218.6514,481.8888,218.2136,490.78,222.45" style="stroke:#181818;stroke-width:1.0;"/><text fill="#000000" font-family="sans-serif" font-size="13" lengthAdjust="spacing" textLength="111" x="443.71" y="164.5284">registra resultado</text></g><!--SRC=[bLBRJi9047tlLyoZ1Fe3VJ11m4XY307zW64xr27j3jaBtkA_kxj2wQellcqdvpPdgbgq5jQo5RTUJU6Z02Z9EgobWeqph9iuyQtZJcRORLbMWV0YfgvWZeuUkQE061_9y8uLcfbePz2IngiHL70ZqXBg2A4zAUy28iaCSSLdKQWK94ntt7Y3YaLlfgllG1pCbjfHGoP-7dn8ACjywAr7mrdgmodfL3cFxV_sQSZD6UsSR4rF0tHQwc8RS9eCcWTFHpmh9KnlDiPap-zeRaazuqbd5zyNpr6ExALq53wh3OgwbsOH-umz_LcIuuCiZgHTLab7skAUXgCKv4uCPWMKzCgHEhYVeOPjk9cveant0ZzK9v2JK-p-5olBwzzdha29jk4i26_Grv2JifKhECS9ZqIivGi0]--></g></svg>