<?xml version="1.0" encoding="us-ascii" standalone="no"?><svg xmlns="http://www.w3.org/2000/svg" xmlns:xlink="http://www.w3.org/1999/xlink" contentStyleType="text/css" height="794px" preserveAspectRatio="none" style="width:396px;height:794px;background:#FFFFFF;" version="1.1" viewBox="0 0 396 794" width="396px" zoomAndPan="magnify"><defs/><g><text fill="#000000" font-family="sans-serif" font-size="14" font-weight="bold" lengthAdjust="spacing" textLength="212" x="85.32" y="23.5352">Casos de Uso &#8212; Responsable</text><!--cluster Sistema RPA Galia/SAP--><g id="cluster_Sistema RPA Galia/SAP"><rect fill="none" height="744" rx="2.5" ry="2.5" style="stroke:#181818;stroke-width:1.0;" width="277.64" x="113" y="44.4883"/><text fill="#000000" font-family="sans-serif" font-size="14" font-weight="bold" lengthAdjust="spacing" textLength="167" x="168.32" y="60.0234">Sistema RPA Galia/SAP</text></g><!--cluster Autenticaci?n--><g id="cluster_Autenticaci&#243;n"><path d="M169.62,681.4883 L268.62,681.4883 A3.75,3.75 0 0 1 271.12,683.9883 L278.12,703.9766 L334.02,703.9766 A2.5,2.5 0 0 1 336.52,706.4766 L336.52,761.9883 A2.5,2.5 0 0 1 334.02,764.4883 L169.62,764.4883 A2.5,2.5 0 0 1 167.12,761.9883 L167.12,683.9883 A2.5,2.5 0 0 1 169.62,681.4883 " fill="none" style="stroke:#000000;stroke-width:1.5;"/><line style="stroke:#000000;stroke-width:1.5;" x1="167.12" x2="278.12" y1="703.9766" y2="703.9766"/><text fill="#000000" font-family="sans-serif" font-size="14" font-weight="bold" lengthAdjust="spacing" textLength="98" x="171.12" y="697.0234">Autenticaci&#243;n</text></g><!--cluster Gesti?n de Registros--><g id="cluster_Gesti&#243;n de Registros"><path d="M139.5,418.4883 L291.5,418.4883 A3.75,3.75 0 0 1 294,420.9883 L301,440.9766 L364.14,440.9766 A2.5,2.5 0 0 1 366.64,443.4766 L366.64,654.9883 A2.5,2.5 0 0 1 364.14,657.4883 L139.5,657.4883 A2.5,2.5 0 0 1 137,654.9883 L137,420.9883 A2.5,2.5 0 0 1 139.5,418.4883 " fill="none" style="stroke:#000000;stroke-width:1.5;"/><line style="stroke:#000000;stroke-width:1.5;" x1="137" x2="301" y1="440.9766" y2="440.9766"/><text fill="#000000" font-family="sans-serif" font-size="14" font-weight="bold" lengthAdjust="spacing" textLength="151" x="141" y="434.0234">Gesti&#243;n de Registros</text></g><!--cluster Gesti?n de Declaraciones--><g id="cluster_Gesti&#243;n de Declaraciones"><path d="M146.66,87.4883 L328.66,87.4883 A3.75,3.75 0 0 1 331.16,89.9883 L338.16,109.9766 L356.98,109.9766 A2.5,2.5 0 0 1 359.48,112.4766 L359.48,391.9883 A2.5,2.5 0 0 1 356.98,394.4883 L146.66,394.4883 A2.5,2.5 0 0 1 144.16,391.9883 L144.16,89.9883 A2.5,2.5 0 0 1 146.66,87.4883 " fill="none" style="stroke:#000000;stroke-width:1.5;"/><line style="stroke:#000000;stroke-width:1.5;" x1="144.16" x2="338.16" y1="109.9766" y2="109.9766"/><text fill="#000000" font-family="sans-serif" font-size="14" font-weight="bold" lengthAdjust="spacing" textLength="181" x="148.16" y="103.0234">Gesti&#243;n de Declaraciones</text></g><g id="elem_UC_LOGIN"><ellipse cx="251.8187" cy="732.488" fill="#F1F1F1" rx="68.6987" ry="16.1397" style="stroke:#181818;stroke-width:0.5;"/><text fill="#000000" font-family="sans-serif" font-size="14" lengthAdjust="spacing" textLength="90" x="204.291" y="736.4045">Iniciar sesi&#243;n</text></g><g id="elem_UC_LOG_RES"><ellipse cx="251.8196" cy="619.4922" fill="#F1F1F1" rx="98.8196" ry="22.1639" style="stroke:#181818;stroke-width:0.5;"/><text fill="#000000" font-family="sans-serif" font-size="14" lengthAdjust="spacing" textLength="161" x="171.3196" y="622.7832">Consultar log completo</text></g><g id="elem_UC_UPD"><ellipse cx="251.8247" cy="543.4892" fill="#F1F1F1" rx="83.8047" ry="19.1609" style="stroke:#181818;stroke-width:0.5;"/><text fill="#000000" font-family="sans-serif" font-size="14" lengthAdjust="spacing" textLength="127" x="188.3247" y="546.7802">Actualizar registro</text></g><g id="elem_UC_DEL"><ellipse cx="251.8171" cy="471.4857" fill="#F1F1F1" rx="78.2871" ry="18.0574" style="stroke:#181818;stroke-width:0.5;"/><text fill="#000000" font-family="sans-serif" font-size="14" lengthAdjust="spacing" textLength="114" x="194.8171" y="474.7767">Eliminar registro</text></g><g id="elem_UC1"><ellipse cx="251.8245" cy="357.4912" fill="#F1F1F1" rx="91.6645" ry="20.7329" style="stroke:#181818;stroke-width:0.5;"/><text fill="#000000" font-family="sans-serif" font-size="14" lengthAdjust="spacing" textLength="145" x="179.3245" y="360.7822">Registrar declaraci&#243;n</text></g><g id="elem_UC2"><ellipse cx="251.8171" cy="283.4857" fill="#F1F1F1" rx="78.2871" ry="18.0574" style="stroke:#181818;stroke-width:0.5;"/><text fill="#000000" font-family="sans-serif" font-size="14" lengthAdjust="spacing" textLength="114" x="194.8171" y="286.7767">Guardar registro</text></g><g id="elem_UC3"><ellipse cx="251.8161" cy="214.4855" fill="#F1F1F1" rx="66.5361" ry="15.7072" style="stroke:#181818;stroke-width:0.5;"/><text fill="#000000" font-family="sans-serif" font-size="14" lengthAdjust="spacing" textLength="84" x="206.8161" y="218.5031">Enviar a SAP</text></g><g id="elem_UC_LOG_OP"><ellipse cx="251.8204" cy="143.4844" fill="#F1F1F1" rx="90.7804" ry="20.5561" style="stroke:#181818;stroke-width:0.5;"/><text fill="#000000" font-family="sans-serif" font-size="14" lengthAdjust="spacing" textLength="143" x="180.3204" y="146.7754">Consultar log propio</text></g><!--entity Responsable--><g id="elem_Responsable"><ellipse cx="49.5" cy="384.7483" fill="#F1F1F1" rx="8" ry="8" style="stroke:#181818;stroke-width:0.5;"/><path d="M49.5,392.7483 L49.5,419.7483 M36.5,400.7483 L62.5,400.7483 M49.5,419.7483 L36.5,434.7483 M49.5,419.7483 L62.5,434.7483 " fill="none" style="stroke:#181818;stroke-width:0.5;"/><text fill="#000000" font-family="sans-serif" font-size="14" lengthAdjust="spacing" textLength="87" x="6" y="449.7834">Responsable</text></g><!--link Responsable to UC_LOGIN--><g id="link_Responsable_UC_LOGIN"><path d="M55.11,452.8983 C62.97,513.0383 80.54,625.8483 105,657.4883 C129.9,689.6983 166.7956,707.398 199.5356,718.458 " fill="none" id="Responsable-to-UC_LOGIN" style="stroke:#181818;stroke-width:1.0;"/><polygon fill="#181818" points="205.22,720.3783,197.9736,713.7083,200.483,718.7781,195.4132,721.2875,205.22,720.3783" style="stroke:#181818;stroke-width:1.0;"/></g><!--link Responsable to UC_LOG_RES--><g id="link_Responsable_UC_LOG_RES"><path d="M52.87,452.9483 C57.26,490.6383 69.74,547.1383 105,580.4883 C120.52,595.1583 135.1569,602.814 155.7869,608.654 " fill="none" id="Responsable-to-UC_LOG_RES" style="stroke:#181818;stroke-width:1.0;"/><polygon fill="#181818" points="161.56,610.2883,153.9898,603.9881,156.7491,608.9264,151.8108,611.6856,161.56,610.2883" style="stroke:#181818;stroke-width:1.0;"/></g><!--link Responsable to UC_UPD--><g id="link_Responsable_UC_UPD"><path d="M64.63,453.0283 C73.47,472.0683 86.71,493.8283 105,507.4883 C124.85,522.3083 144.1868,529.8143 168.0268,534.9943 " fill="none" id="Responsable-to-UC_UPD" style="stroke:#181818;stroke-width:1.0;"/><polygon fill="#181818" points="173.89,536.2683,165.9445,530.4485,169.004,535.2066,164.2459,538.2661,173.89,536.2683" style="stroke:#181818;stroke-width:1.0;"/></g><!--link Responsable to UC_DEL--><g id="link_Responsable_UC_DEL"><path d="M93.47,426.7183 C125.09,435.7083 162.359,446.3166 195.439,455.7266 " fill="none" id="Responsable-to-UC_DEL" style="stroke:#181818;stroke-width:1.0;"/><polygon fill="#181818" points="201.21,457.3683,193.6479,451.0584,196.4008,456.0002,191.459,458.7532,201.21,457.3683" style="stroke:#181818;stroke-width:1.0;"/></g><!--link Responsable to UC1--><g id="link_Responsable_UC1"><path d="M93.47,402.2583 C122.67,393.9483 155.8591,384.5104 187.6991,375.4504 " fill="none" id="Responsable-to-UC1" style="stroke:#181818;stroke-width:1.0;"/><polygon fill="#181818" points="193.47,373.8083,183.7189,372.4242,188.6609,375.1767,185.9084,380.1187,193.47,373.8083" style="stroke:#181818;stroke-width:1.0;"/></g><!--link Responsable to UC2--><g id="link_Responsable_UC2"><path d="M64.01,376.0883 C72.8,356.4183 86.17,333.6783 105,319.4883 C125.93,303.7083 147.0079,295.9618 172.0579,290.9218 " fill="none" id="Responsable-to-UC2" style="stroke:#181818;stroke-width:1.0;"/><polygon fill="#181818" points="177.94,289.7383,168.3278,287.5921,173.0382,290.7245,169.9058,295.4349,177.94,289.7383" style="stroke:#181818;stroke-width:1.0;"/></g><!--link Responsable to UC3--><g id="link_Responsable_UC3"><path d="M52.49,375.8683 C56.58,337.7283 68.82,280.4583 105,247.4883 C126.58,227.8183 151.4111,219.8495 179.1311,216.2095 " fill="none" id="Responsable-to-UC3" style="stroke:#181818;stroke-width:1.0;"/><polygon fill="#181818" points="185.08,215.4283,175.6358,212.6341,180.1226,216.0793,176.6774,220.566,185.08,215.4283" style="stroke:#181818;stroke-width:1.0;"/></g><!--link Responsable to UC_LOG_OP--><g id="link_Responsable_UC_LOG_OP"><path d="M54.68,376.0583 C61.84,317.2483 78.32,208.8483 105,181.4883 C120.98,165.0983 137.251,156.9409 159.411,151.3709 " fill="none" id="Responsable-to-UC_LOG_OP" style="stroke:#181818;stroke-width:1.0;"/><polygon fill="#181818" points="165.23,149.9083,155.5264,148.2229,160.3808,151.1271,157.4766,155.9816,165.23,149.9083" style="stroke:#181818;stroke-width:1.0;"/></g><!--SRC=[XL91Ri8m4Bpd5Ilkg0BkbI904H8gKH1dj7MsOLLZHxRJGwjAVKH_qYVq9tr9xH0A9KRuk3kpkpDZnquIJD5g2oN1nchu-VY4WcojbSL7IKaYwSc1qs2usZaesP1mh5MoOyyGR8GacoGed3R_YG68gl8B1cksZlO8HPv2XfBnRftc0tXB4l2lHl6CbOUbZIFbMA3WxoyL-j2znf90wo4BnOBHW2LxmA25pNIxN6MBXnRzVZ4p8-i2CkWhgFA766sZewV-yaOwFrpg2eJUrvASFjkmBURhFYqLhl6INZtFTFC70N2WRV9PdpANl6TrIJXIPlDbf-Iga1a9YSRRf1N5nNHI_OxoY3tPDUhZimPDUUMYSKI1UWaf8BGv_hqMFhbbRMrqpM73oTbLtadsyPrz8XWExq_nnXjjAf5MS3vI3kxsowD8RHofJQuTuGNy0W00]--></g></svg>