<?xml version="1.0" encoding="us-ascii" standalone="no"?><svg xmlns="http://www.w3.org/2000/svg" xmlns:xlink="http://www.w3.org/1999/xlink" contentStyleType="text/css" height="231px" preserveAspectRatio="none" style="width:690px;height:231px;background:#FFFFFF;" version="1.1" viewBox="0 0 690 231" width="690px" zoomAndPan="magnify"><defs/><g><text fill="#000000" font-family="sans-serif" font-size="14" font-weight="bold" lengthAdjust="spacing" textLength="252" x="212.035" y="23.5352">Casos de Uso &#8212; AdministradorSAP</text><!--cluster Sistema RPA Galia/SAP--><g id="cluster_Sistema RPA Galia/SAP"><rect fill="none" height="164" rx="2.5" ry="2.5" style="stroke:#181818;stroke-width:1.0;" width="283.07" x="151" y="44.4883"/><text fill="#000000" font-family="sans-serif" font-size="14" font-weight="bold" lengthAdjust="spacing" textLength="167" x="209.035" y="60.0234">Sistema RPA Galia/SAP</text></g><!--cluster Administraci?n SAP--><g id="cluster_Administraci&#243;n SAP"><path d="M177.5,87.4883 L320.5,87.4883 A3.75,3.75 0 0 1 323,89.9883 L330,109.9766 L407.57,109.9766 A2.5,2.5 0 0 1 410.07,112.4766 L410.07,181.9883 A2.5,2.5 0 0 1 407.57,184.4883 L177.5,184.4883 A2.5,2.5 0 0 1 175,181.9883 L175,89.9883 A2.5,2.5 0 0 1 177.5,87.4883 " fill="none" style="stroke:#000000;stroke-width:1.5;"/><line style="stroke:#000000;stroke-width:1.5;" x1="175" x2="330" y1="109.9766" y2="109.9766"/><text fill="#000000" font-family="sans-serif" font-size="14" font-weight="bold" lengthAdjust="spacing" textLength="142" x="179" y="103.0234">Administraci&#243;n SAP</text></g><g id="elem_UC8"><ellipse cx="292.5363" cy="145.4855" fill="#F1F1F1" rx="101.5363" ry="22.7073" style="stroke:#181818;stroke-width:0.5;"/><text fill="#000000" font-family="sans-serif" font-size="14" lengthAdjust="spacing" textLength="167" x="209.0363" y="148.7766">Desbloquear cuenta SAP</text></g><!--entity ASAP--><g id="elem_ASAP"><ellipse cx="68.5" cy="115.7483" fill="#F1F1F1" rx="8" ry="8" style="stroke:#181818;stroke-width:0.5;"/><path d="M68.5,123.7483 L68.5,150.7483 M55.5,131.7483 L81.5,131.7483 M68.5,150.7483 L55.5,165.7483 M68.5,150.7483 L81.5,165.7483 " fill="none" style="stroke:#181818;stroke-width:0.5;"/><text fill="#000000" font-family="sans-serif" font-size="14" lengthAdjust="spacing" textLength="125" x="6" y="180.7834">AdministradorSAP</text></g><!--entity SAP--><g id="elem_SAP"><ellipse cx="568.57" cy="65.7483" fill="#F1F1F1" rx="8" ry="8" style="stroke:#181818;stroke-width:0.5;"/><path d="M568.57,73.7483 L568.57,100.7483 M555.57,81.7483 L581.57,81.7483 M568.57,100.7483 L555.57,115.7483 M568.57,100.7483 L581.57,115.7483 " fill="none" style="stroke:#181818;stroke-width:0.5;"/><text fill="#000000" font-family="sans-serif" font-size="14" lengthAdjust="spacing" textLength="26" x="555.57" y="130.7834">SAP</text></g><g id="elem_GMN9"><path d="M454.07,168.5183 L454.07,171.3083 L371.7,160.0383 L454.07,179.3083 L454.07,224.4499 A0,0 0 0 0 454.07,224.4499 L683.07,224.4499 A0,0 0 0 0 683.07,224.4499 L683.07,178.5183 L673.07,168.5183 L454.07,168.5183 A0,0 0 0 0 454.07,168.5183 " fill="#FEFFDD" style="stroke:#181818;stroke-width:0.5;"/><path d="M673.07,168.5183 L673.07,178.5183 L683.07,178.5183 L673.07,168.5183 " fill="#FEFFDD" style="stroke:#181818;stroke-width:0.5;"/><text fill="#000000" font-family="sans-serif" font-size="13" lengthAdjust="spacing" textLength="182" x="460.07" y="186.0866">Se activa &#250;nicamente cuando</text><text fill="#000000" font-family="sans-serif" font-size="13" lengthAdjust="spacing" textLength="148" x="460.07" y="201.3972">el RobotRPA notifica un</text><text fill="#000000" font-family="sans-serif" font-size="13" lengthAdjust="spacing" textLength="208" x="460.07" y="216.7077">error cr&#237;tico de cuenta bloqueada</text></g><!--link ASAP to UC8--><g id="link_ASAP_UC8"><path d="M131.35,145.4883 C149.83,145.4883 164.58,145.4883 184.87,145.4883 " fill="none" id="ASAP-to-UC8" style="stroke:#181818;stroke-width:1.0;"/><polygon fill="#181818" points="190.87,145.4883,181.87,141.4883,185.87,145.4883,181.87,149.4883,190.87,145.4883" style="stroke:#181818;stroke-width:1.0;"/></g><!--link UC8 to SAP--><g id="link_UC8_SAP"><path d="M372.43,131.0983 C436.94,119.3183 516.6575,104.7755 548.7675,98.9155 " fill="none" id="UC8-to-SAP" style="stroke:#181818;stroke-width:1.0;"/><polygon fill="#181818" points="554.67,97.8383,545.0981,95.5191,549.7512,98.7359,546.5344,103.3891,554.67,97.8383" style="stroke:#181818;stroke-width:1.0;"/></g><!--SRC=[NP0nJWCn44NxESLe-uYM2caL9DeegnnWOizkHZWUiBrfK2GEmJMew6Zt9fo4iLaaX2KNzlpt_R-BbC2ufQmPFUCXAtwzlc7lpn8bbqHUqz3l00AF1OjYakbKq4jYLqGZdCGm9ya5pW3aYYRi_kCTKiQ- -lm8ccDre3ZPyzrWMZuJxdSzFb0GkcdG2m3QUYBtI1F_jNMoV4HSHRYkEREZRBfxpiUWppDJGZTpB8I_8GxRswQ_mXMW9iBDvgxTsiPsQE6Y5bwxwhXI0wF5bmlXyXd5qTcShVjCqQkDEU1UZrfg2SDbD0dEiKvIij8kBUz5dDP_NbEjAJq1HryXXcy0]--></g></svg>