<?xml version="1.0" encoding="us-ascii" standalone="no"?><svg xmlns="http://www.w3.org/2000/svg" xmlns:xlink="http://www.w3.org/1999/xlink" contentStyleType="text/css" height="1222px" preserveAspectRatio="none" style="width:408px;height:1222px;background:#FFFFFF;" version="1.1" viewBox="0 0 408 1222" width="408px" zoomAndPan="magnify"><defs/><g><text fill="#000000" font-family="sans-serif" font-size="14" font-weight="bold" lengthAdjust="spacing" textLength="225" x="84.82" y="23.5352">Casos de Uso &#8212; Administrador</text><!--cluster Sistema RPA Galia/SAP--><g id="cluster_Sistema RPA Galia/SAP"><rect fill="none" height="1101" rx="2.5" ry="2.5" style="stroke:#181818;stroke-width:1.0;" width="277.64" x="125" y="115.4583"/><text fill="#000000" font-family="sans-serif" font-size="14" font-weight="bold" lengthAdjust="spacing" textLength="167" x="180.32" y="130.9934">Sistema RPA Galia/SAP</text></g><!--cluster Autenticaci?n--><g id="cluster_Autenticaci&#243;n"><path d="M181.62,1109.4583 L280.62,1109.4583 A3.75,3.75 0 0 1 283.12,1111.9583 L290.12,1131.9466 L346.02,1131.9466 A2.5,2.5 0 0 1 348.52,1134.4466 L348.52,1189.9583 A2.5,2.5 0 0 1 346.02,1192.4583 L181.62,1192.4583 A2.5,2.5 0 0 1 179.12,1189.9583 L179.12,1111.9583 A2.5,2.5 0 0 1 181.62,1109.4583 " fill="none" style="stroke:#000000;stroke-width:1.5;"/><line style="stroke:#000000;stroke-width:1.5;" x1="179.12" x2="290.12" y1="1131.9466" y2="1131.9466"/><text fill="#000000" font-family="sans-serif" font-size="14" font-weight="bold" lengthAdjust="spacing" textLength="98" x="183.12" y="1124.9934">Autenticaci&#243;n</text></g><!--cluster Administraci?n de Usuarios--><g id="cluster_Administraci&#243;n de Usuarios"><path d="M158.82,784.4583 L359.82,784.4583 A3.75,3.75 0 0 1 362.32,786.9583 L369.32,806.9466 L369.82,806.9466 A2.5,2.5 0 0 1 372.32,809.4466 L372.32,1082.9583 A2.5,2.5 0 0 1 369.82,1085.4583 L158.82,1085.4583 A2.5,2.5 0 0 1 156.32,1082.9583 L156.32,786.9583 A2.5,2.5 0 0 1 158.82,784.4583 " fill="none" style="stroke:#000000;stroke-width:1.5;"/><line style="stroke:#000000;stroke-width:1.5;" x1="156.32" x2="369.32" y1="806.9466" y2="806.9466"/><text fill="#000000" font-family="sans-serif" font-size="14" font-weight="bold" lengthAdjust="spacing" textLength="200" x="160.32" y="799.9934">Administraci&#243;n de Usuarios</text></g><!--cluster Gesti?n de Registros\n(heredado de Responsable)--><g id="cluster_Gesti&#243;n de Registros\n(heredado de Responsable)"><path d="M151.5,505.4583 L346.5,505.4583 A3.75,3.75 0 0 1 349,507.9583 L356,544.4348 L376.14,544.4348 A2.5,2.5 0 0 1 378.64,546.9348 L378.64,757.9583 A2.5,2.5 0 0 1 376.14,760.4583 L151.5,760.4583 A2.5,2.5 0 0 1 149,757.9583 L149,507.9583 A2.5,2.5 0 0 1 151.5,505.4583 " fill="none" style="stroke:#000000;stroke-width:1.5;"/><line style="stroke:#000000;stroke-width:1.5;" x1="149" x2="356" y1="544.4348" y2="544.4348"/><text fill="#000000" font-family="sans-serif" font-size="14" font-weight="bold" lengthAdjust="spacing" textLength="151" x="174.5" y="520.9934">Gesti&#243;n de Registros</text><text fill="#000000" font-family="sans-serif" font-size="14" font-weight="bold" lengthAdjust="spacing" textLength="194" x="153" y="537.4817">(heredado de Responsable)</text></g><!--cluster Gesti?n de Declaraciones\n(heredado de Operario)--><g id="cluster_Gesti&#243;n de Declaraciones\n(heredado de Operario)"><path d="M158.66,158.4583 L340.66,158.4583 A3.75,3.75 0 0 1 343.16,160.9583 L350.16,197.4348 L368.98,197.4348 A2.5,2.5 0 0 1 371.48,199.9348 L371.48,478.9583 A2.5,2.5 0 0 1 368.98,481.4583 L158.66,481.4583 A2.5,2.5 0 0 1 156.16,478.9583 L156.16,160.9583 A2.5,2.5 0 0 1 158.66,158.4583 " fill="none" style="stroke:#000000;stroke-width:1.5;"/><line style="stroke:#000000;stroke-width:1.5;" x1="156.16" x2="350.16" y1="197.4348" y2="197.4348"/><text fill="#000000" font-family="sans-serif" font-size="14" font-weight="bold" lengthAdjust="spacing" textLength="181" x="160.16" y="173.9934">Gesti&#243;n de Declaraciones</text><text fill="#000000" font-family="sans-serif" font-size="14" font-weight="bold" lengthAdjust="spacing" textLength="166" x="167.66" y="190.4817">(heredado de Operario)</text></g><g id="elem_UC_LOGIN"><ellipse cx="263.8187" cy="1160.458" fill="#F1F1F1" rx="68.6987" ry="16.1397" style="stroke:#181818;stroke-width:0.5;"/><text fill="#000000" font-family="sans-serif" font-size="14" lengthAdjust="spacing" textLength="90" x="216.291" y="1164.3745">Iniciar sesi&#243;n</text></g><g id="elem_UC_UCREATE"><ellipse cx="263.819" cy="1053.4581" fill="#F1F1F1" rx="70.199" ry="16.4398" style="stroke:#181818;stroke-width:0.5;"/><text fill="#000000" font-family="sans-serif" font-size="14" lengthAdjust="spacing" textLength="94" x="215.1315" y="1057.183">Crear usuario</text></g><g id="elem_UC_UREAD"><ellipse cx="263.8184" cy="982.458" fill="#F1F1F1" rx="85.0984" ry="19.4197" style="stroke:#181818;stroke-width:0.5;"/><text fill="#000000" font-family="sans-serif" font-size="14" lengthAdjust="spacing" textLength="130" x="198.8184" y="985.749">Consultar usuarios</text></g><g id="elem_UC_UUPDATE"><ellipse cx="263.8162" cy="909.4575" fill="#F1F1F1" rx="82.9462" ry="18.9892" style="stroke:#181818;stroke-width:0.5;"/><text fill="#000000" font-family="sans-serif" font-size="14" lengthAdjust="spacing" textLength="125" x="201.3162" y="912.7485">Actualizar usuario</text></g><g id="elem_UC_UDELETE"><ellipse cx="263.8223" cy="837.4587" fill="#F1F1F1" rx="77.4523" ry="17.8905" style="stroke:#181818;stroke-width:0.5;"/><text fill="#000000" font-family="sans-serif" font-size="14" lengthAdjust="spacing" textLength="112" x="207.8223" y="840.7498">Eliminar usuario</text></g><g id="elem_UC_LOG_RES"><ellipse cx="263.8196" cy="722.4622" fill="#F1F1F1" rx="98.8196" ry="22.1639" style="stroke:#181818;stroke-width:0.5;"/><text fill="#000000" font-family="sans-serif" font-size="14" lengthAdjust="spacing" textLength="161" x="183.3196" y="725.7532">Consultar log completo</text></g><g id="elem_UC_UPD"><ellipse cx="263.8247" cy="646.4592" fill="#F1F1F1" rx="83.8047" ry="19.1609" style="stroke:#181818;stroke-width:0.5;"/><text fill="#000000" font-family="sans-serif" font-size="14" lengthAdjust="spacing" textLength="127" x="200.3247" y="649.7502">Actualizar registro</text></g><g id="elem_UC_DEL"><ellipse cx="263.8171" cy="574.4557" fill="#F1F1F1" rx="78.2871" ry="18.0574" style="stroke:#181818;stroke-width:0.5;"/><text fill="#000000" font-family="sans-serif" font-size="14" lengthAdjust="spacing" textLength="114" x="206.8171" y="577.7467">Eliminar registro</text></g><g id="elem_UC1"><ellipse cx="263.8245" cy="444.4612" fill="#F1F1F1" rx="91.6645" ry="20.7329" style="stroke:#181818;stroke-width:0.5;"/><text fill="#000000" font-family="sans-serif" font-size="14" lengthAdjust="spacing" textLength="145" x="191.3245" y="447.7522">Registrar declaraci&#243;n</text></g><g id="elem_UC2"><ellipse cx="263.8171" cy="370.4557" fill="#F1F1F1" rx="78.2871" ry="18.0574" style="stroke:#181818;stroke-width:0.5;"/><text fill="#000000" font-family="sans-serif" font-size="14" lengthAdjust="spacing" textLength="114" x="206.8171" y="373.7467">Guardar registro</text></g><g id="elem_UC3"><ellipse cx="263.8161" cy="301.4555" fill="#F1F1F1" rx="66.5361" ry="15.7072" style="stroke:#181818;stroke-width:0.5;"/><text fill="#000000" font-family="sans-serif" font-size="14" lengthAdjust="spacing" textLength="84" x="218.8161" y="305.4731">Enviar a SAP</text></g><g id="elem_UC_LOG_OP"><ellipse cx="263.8204" cy="230.4544" fill="#F1F1F1" rx="90.7804" ry="20.5561" style="stroke:#181818;stroke-width:0.5;"/><text fill="#000000" font-family="sans-serif" font-size="14" lengthAdjust="spacing" textLength="143" x="192.3204" y="233.7454">Consultar log propio</text></g><!--entity Administrador--><g id="elem_Administrador"><ellipse cx="55.5" cy="616.7183" fill="#F1F1F1" rx="8" ry="8" style="stroke:#181818;stroke-width:0.5;"/><path d="M55.5,624.7183 L55.5,651.7183 M42.5,632.7183 L68.5,632.7183 M55.5,651.7183 L42.5,666.7183 M55.5,651.7183 L68.5,666.7183 " fill="none" style="stroke:#181818;stroke-width:0.5;"/><text fill="#000000" font-family="sans-serif" font-size="14" lengthAdjust="spacing" textLength="99" x="6" y="681.7534">Administrador</text></g><g id="elem_GMN32"><path d="M169.82,43.4883 L169.82,99.4199 L357.82,99.4199 L357.82,53.4883 L347.82,43.4883 L169.82,43.4883 " fill="#FEFFDD" style="stroke:#181818;stroke-width:0.5;"/><path d="M347.82,43.4883 L347.82,53.4883 L357.82,53.4883 L347.82,43.4883 " fill="#FEFFDD" style="stroke:#181818;stroke-width:1.0;"/><text fill="#000000" font-family="sans-serif" font-size="13" lengthAdjust="spacing" textLength="130" x="175.82" y="61.0566">Incluye todos los CU</text><text fill="#000000" font-family="sans-serif" font-size="13" lengthAdjust="spacing" textLength="167" x="175.82" y="76.3672">de Operario y Responsable</text><text fill="#000000" font-family="sans-serif" font-size="13" lengthAdjust="spacing" textLength="78" x="175.82" y="91.6777">por herencia</text></g><!--link Administrador to UC_LOGIN--><g id="link_Administrador_UC_LOGIN"><path d="M57.35,685.1683 C60.13,780.0883 71.58,1021.3483 117,1085.4583 C140.29,1118.3283 176.6786,1135.9089 209.6786,1146.7289 " fill="none" id="Administrador-to-UC_LOGIN" style="stroke:#181818;stroke-width:1.0;"/><polygon fill="#181818" points="215.38,1148.5983,208.0742,1141.9933,210.6289,1147.0405,205.5817,1149.5952,215.38,1148.5983" style="stroke:#181818;stroke-width:1.0;"/></g><!--link Administrador to UC_UCREATE--><g id="link_Administrador_UC_UCREATE"><path d="M57.48,684.9883 C60.45,770.3183 72.17,971.4583 117,1019.4583 C136.43,1040.2583 159.9755,1048.6741 187.3555,1052.4241 " fill="none" id="Administrador-to-UC_UCREATE" style="stroke:#181818;stroke-width:1.0;"/><polygon fill="#181818" points="193.3,1053.2383,184.926,1048.054,188.3462,1052.5598,183.8405,1055.98,193.3,1053.2383" style="stroke:#181818;stroke-width:1.0;"/></g><!--link Administrador to UC_UREAD--><g id="link_Administrador_UC_UREAD"><path d="M59.29,685.1483 C65.27,757.2983 81.75,908.4483 117,945.4583 C133.66,962.9583 151.4642,971.3306 174.8842,976.5606 " fill="none" id="Administrador-to-UC_UREAD" style="stroke:#181818;stroke-width:1.0;"/><polygon fill="#181818" points="180.74,977.8683,172.8281,972.0029,175.8602,976.7786,171.0846,979.8106,180.74,977.8683" style="stroke:#181818;stroke-width:1.0;"/></g><!--link Administrador to UC_UUPDATE--><g id="link_Administrador_UC_UUPDATE"><path d="M55.64,685.0183 C56.71,735.2483 66.41,822.5283 117,872.4583 C134.66,889.8883 153.4245,898.2148 177.4245,903.3848 " fill="none" id="Administrador-to-UC_UUPDATE" style="stroke:#181818;stroke-width:1.0;"/><polygon fill="#181818" points="183.29,904.6483,175.3342,898.8427,178.4021,903.5954,173.6495,906.6633,183.29,904.6483" style="stroke:#181818;stroke-width:1.0;"/></g><!--link Administrador to UC_UDELETE--><g id="link_Administrador_UC_UDELETE"><path d="M70.14,685.0083 C80.17,709.0083 95.75,739.2483 117,760.4583 C145.88,789.2783 182.2196,807.6387 213.6996,820.2387 " fill="none" id="Administrador-to-UC_UDELETE" style="stroke:#181818;stroke-width:1.0;"/><polygon fill="#181818" points="219.27,822.4683,212.4008,815.4104,214.628,820.6103,209.4281,822.8375,219.27,822.4683" style="stroke:#181818;stroke-width:1.0;"/></g><!--link Administrador to UC_LOG_RES--><g id="link_Administrador_UC_LOG_RES"><path d="M105.4,677.9483 C109.26,679.9483 113.15,681.8083 117,683.4583 C140.12,693.3783 160.5964,699.8544 184.4164,705.9344 " fill="none" id="Administrador-to-UC_LOG_RES" style="stroke:#181818;stroke-width:1.0;"/><polygon fill="#181818" points="190.23,707.4183,182.4989,701.3167,185.3853,706.1817,180.5203,709.0682,190.23,707.4183" style="stroke:#181818;stroke-width:1.0;"/></g><!--link Administrador to UC_UPD--><g id="link_Administrador_UC_UPD"><path d="M105.39,646.4583 C127.56,646.4583 148.4,646.4583 173.58,646.4583 " fill="none" id="Administrador-to-UC_UPD" style="stroke:#181818;stroke-width:1.0;"/><polygon fill="#181818" points="179.58,646.4583,170.58,642.4583,174.58,646.4583,170.58,650.4583,179.58,646.4583" style="stroke:#181818;stroke-width:1.0;"/></g><!--link Administrador to UC_DEL--><g id="link_Administrador_UC_DEL"><path d="M105.36,614.8483 C109.22,612.8883 113.13,611.0583 117,609.4583 C143.22,598.6083 167.6809,591.9047 193.8609,586.3447 " fill="none" id="Administrador-to-UC_DEL" style="stroke:#181818;stroke-width:1.0;"/><polygon fill="#181818" points="199.73,585.0983,190.0954,583.0552,194.8391,586.137,191.7573,590.8807,199.73,585.0983" style="stroke:#181818;stroke-width:1.0;"/></g><!--link Administrador to UC1--><g id="link_Administrador_UC1"><path d="M73.08,607.7883 C83.55,586.3183 98.59,560.0783 117,540.4583 C147.9,507.5283 186.9383,483.2363 218.5983,466.3163 " fill="none" id="Administrador-to-UC1" style="stroke:#181818;stroke-width:1.0;"/><polygon fill="#181818" points="223.89,463.4883,214.0671,464.2025,219.4802,465.845,217.8378,471.2581,223.89,463.4883" style="stroke:#181818;stroke-width:1.0;"/></g><!--link Administrador to UC2--><g id="link_Administrador_UC2"><path d="M61.38,607.7883 C69.78,547.3483 88.83,434.4983 117,406.4583 C135.39,388.1583 155.617,379.7766 180.687,374.9766 " fill="none" id="Administrador-to-UC2" style="stroke:#181818;stroke-width:1.0;"/><polygon fill="#181818" points="186.58,373.8483,176.9884,371.6121,181.6692,374.7885,178.4928,379.4694,186.58,373.8483" style="stroke:#181818;stroke-width:1.0;"/></g><!--link Administrador to UC3--><g id="link_Administrador_UC3"><path d="M58.83,607.7583 C64.13,533.0683 79.65,372.9883 117,334.4583 C137.6,313.2083 162.8106,305.0447 191.0506,301.7447 " fill="none" id="Administrador-to-UC3" style="stroke:#181818;stroke-width:1.0;"/><polygon fill="#181818" points="197.01,301.0483,187.6066,298.1199,192.0438,301.6286,188.5351,306.0658,197.01,301.0483" style="stroke:#181818;stroke-width:1.0;"/></g><!--link Administrador to UC_LOG_OP--><g id="link_Administrador_UC_LOG_OP"><path d="M57.48,607.8183 C60.47,521.7083 72.21,317.7783 117,268.4583 C132.3,251.6083 148.2229,243.2884 170.2629,237.7184 " fill="none" id="Administrador-to-UC_LOG_OP" style="stroke:#181818;stroke-width:1.0;"/><polygon fill="#181818" points="176.08,236.2483,166.3743,234.5754,171.2324,237.4734,168.3344,242.3315,176.08,236.2483" style="stroke:#181818;stroke-width:1.0;"/></g><!--link Administrador to GMN32--><g id="link_Administrador_GMN32"><path d="M58.09,607.8183 C62.61,511.7283 77.81,264.6083 117,193.4583 C138.98,153.5583 179.63,121.2283 212.44,99.8883 " fill="none" id="Administrador-GMN32" style="stroke:#181818;stroke-width:1.0;stroke-dasharray:7.0,7.0;"/></g><!--SRC=[XLJ1Qjmm4BthAuOz9OTGajm3nZRBGiYQtVfM2AeyyOfe9IF9WQGK-X7zatv2_wHVqh4jxteTRIBmHJDFRzwRyNZf5KBAdN5G8PJEmBzVlo6fzb9BvoslZ6LCuPC7Ry3AUkUXaXQ5bqQpdIICa5OeT8nnuOsTGxjKhciYMMpf5lSSDaK2Iwua_x9DYWNyO0peD5myyvhIajQZzb9m8V_-qLqSmcaT2kuePQMbaDo2GpVaS0Tb-dY_NguU-koVypSFHVMF3b9RRgLnKOBK8ZtV3YcB8JXmbEacJxxc4OZHhbN-27DZMIKXilU0HFYMN7YR4WL0MMHHZbn9qd5QMO1a-NqU87FnItH-LBt1khF1k6_wOeSMA-hISEyQ4i2_AxoCEtAGfqmDmkmRXTvCd7_SvDiFHTf0lPYOMMGVY3m1Z13I-Qd838NYNQkDnhdGTOEsiowkCjX3vDNund6-hj_dBwaDrPbIRoBIz4itjXpwmJ-SFltsCyyRQvg-vKVBrqNmWjmu-U_Wwkhk-4T4G-CWnuFzoCP3OJZZmJ26vuhfXoIEBCxmTGsF1QwZjpVHszlp1P65J1kFORUPfza20rXfeTfNfFrNqP9KzAKbNKzc2Lwd_m_56kBeXaxJbcAeA-WOs7y0]--></g></svg>